<svg width="100" height="99" viewBox="0 0 100 99" fill="none" xmlns="http://www.w3.org/2000/svg">
<path d="M49.927 0.000733073C50.1256 0.00114924 50.3242 0.00156541 50.5287 0.00199418C53.3786 0.0115858 56.1744 0.0600348 58.9735 0.640388C59.1637 0.678753 59.3538 0.717118 59.5498 0.756646C68.9877 2.71097 77.5686 6.94312 84.5279 13.5783C84.7209 13.7614 84.7209 13.7614 84.9177 13.9482C86.7686 15.714 88.4735 17.5094 89.99 19.5645C90.1573 19.7868 90.3247 20.0091 90.4921 20.2313C91.67 21.8131 92.7153 23.4571 93.6963 25.1645C93.7674 25.2865 93.8385 25.4085 93.9118 25.5342C98.1265 32.8235 100.032 41.0819 99.9996 49.4231C99.9992 49.6197 99.9988 49.8162 99.9983 50.0188C99.9886 52.8398 99.9397 55.6074 99.3534 58.3783C99.2953 58.6607 99.2953 58.6607 99.236 58.9487C97.2617 68.2914 92.9864 76.7857 86.2836 83.6748C86.1603 83.8022 86.037 83.9295 85.9099 84.0607C84.1261 85.8929 82.3124 87.5806 80.2364 89.0817C80.0118 89.2474 79.7873 89.4131 79.5627 89.5788C77.9652 90.7447 76.3065 91.7841 74.5793 92.7507C74.4413 92.8283 74.3033 92.906 74.1612 92.986C69.6481 95.5013 64.7379 97.1907 59.6684 98.2179C59.5282 98.2464 59.388 98.2748 59.2435 98.3042C56.3807 98.8428 53.5472 98.9974 50.6386 98.991C50.0652 98.9903 49.4919 98.9949 48.9185 98.9998C46.3098 99.0084 43.7941 98.7756 41.2219 98.3507C40.8892 98.2962 40.8892 98.2962 40.5498 98.2406C32.1095 96.7398 24.1018 92.8802 17.6182 87.3438C17.4729 87.2213 17.3275 87.0989 17.1778 86.9727C14.5433 84.6919 12.0715 82.2297 10.0104 79.4266C9.8433 79.2045 9.67617 78.9825 9.50898 78.7605C8.33074 77.179 7.2806 75.5367 6.30401 73.8266C6.22555 73.69 6.1471 73.5534 6.06627 73.4127C3.52537 68.9452 1.81871 64.0846 0.781029 59.0662C0.752284 58.9274 0.723539 58.7886 0.693923 58.6456C0.113806 55.6242 -0.011062 52.6362 0.000740547 49.5679C0.00116096 49.3714 0.00158137 49.1748 0.00201452 48.9723C0.0117039 46.1513 0.0606469 43.3837 0.646917 40.6128C0.685673 40.4245 0.72443 40.2363 0.76436 40.0423C2.73861 30.6996 7.01392 22.2053 13.7168 15.3162C13.8401 15.1889 13.9634 15.0616 14.0904 14.9304C15.8742 13.0982 17.6879 11.4105 19.764 9.90935C19.9885 9.74365 20.2131 9.57796 20.4376 9.41226C22.0352 8.24639 23.6938 7.20695 25.4211 6.24039C25.559 6.16272 25.697 6.08506 25.8391 6.00504C30.3522 3.48979 35.2624 1.80036 40.3319 0.773146C40.4721 0.744691 40.6124 0.716237 40.7569 0.686919C43.809 0.112658 46.8275 -0.0109504 49.927 0.000733073Z" fill="#E0D9D2"/>
<path d="M49.9023 19.0701C50.0664 19.0702 50.2305 19.0704 50.3995 19.0706C52.9403 19.0792 55.3606 19.2007 57.8125 19.916C57.9716 19.9617 58.1307 20.0073 58.2946 20.0543C61.9568 21.1406 65.3494 22.804 68.3594 25.1367C68.5427 25.2753 68.726 25.4139 68.9148 25.5567C75.3725 30.5903 79.4142 37.9752 80.5763 45.9878C81.1806 51.7141 80.6075 57.3361 78.3203 62.6484C78.2622 62.7868 78.2041 62.9252 78.1443 63.0677C76.7445 66.3629 74.7141 69.31 72.2656 71.9297C72.1267 72.0783 72.1267 72.0783 71.985 72.23C68.8992 75.49 65.2413 77.6803 61.1328 79.4707C60.8715 79.5859 60.8715 79.5859 60.6049 79.7033C60.1309 79.8661 59.7533 79.9153 59.2529 79.9178C59.1054 79.9211 58.9579 79.9243 58.8058 79.9277C58.2957 79.8397 58.1324 79.6718 57.8125 79.2773C57.5595 78.7765 57.5915 78.4119 57.5895 77.851C57.5874 77.5245 57.5874 77.5245 57.5853 77.1915C57.5845 76.9548 57.5837 76.7182 57.5829 76.4744C57.5783 75.9742 57.5736 75.4741 57.5687 74.974C57.5617 74.1848 57.5558 73.3957 57.5535 72.6065C57.5512 71.8453 57.5426 71.0843 57.534 70.3231C57.5346 69.9735 57.5346 69.9735 57.5352 69.6167C57.504 67.4584 56.9096 65.7657 55.6641 64.002C55.7868 63.9777 55.9096 63.9535 56.0361 63.9285C60.2744 63.0823 64.3752 62.1241 66.9945 58.4127C68.9531 55.3955 69.3983 52.1537 69.4336 48.6299C69.4372 48.4063 69.4408 48.1827 69.4445 47.9523C69.4293 45.8879 68.8639 44.1299 67.8589 42.3336C67.6893 42.0252 67.6893 42.0252 67.5163 41.7105C67.23 41.1939 67.23 41.1939 66.8703 40.9176C66.6016 40.6055 66.6016 40.6055 66.5854 40.1955C66.6098 40.0407 66.6343 39.8858 66.6595 39.7263C67.0123 37.0945 66.9413 34.465 66.2109 31.9043C63.4758 32.1116 61.2701 33.0045 59.021 34.5267C58.1916 35.0509 57.7176 35.2994 56.7383 35.1189C56.5738 35.0694 56.4094 35.0198 56.2399 34.9688C54.2367 34.3978 52.192 34.3575 50.1221 34.3696C49.8693 34.3681 49.6165 34.3666 49.3561 34.3651C47.2903 34.3692 45.1242 34.4251 43.1641 35.131C42.1957 35.3389 41.5671 34.9171 40.7715 34.418C40.5181 34.2551 40.2651 34.0917 40.0124 33.9278C38.0706 32.6724 36.0852 32.1047 33.7891 31.9043C33.0172 34.6107 32.9806 37.4075 33.4063 40.1802C33.3936 40.8648 33.0091 41.2164 32.5706 41.7143C31.3291 43.2949 30.6234 45.4121 30.5984 47.3965C30.596 47.5871 30.596 47.5871 30.5934 47.7816C30.5896 48.1893 30.5896 48.5968 30.5908 49.0045C30.5911 49.1437 30.5913 49.2828 30.5915 49.4262C30.6089 53.1931 31.4536 56.7819 33.9653 59.7443C36.7455 62.3941 40.5646 63.6094 44.3359 64.002C44.1947 64.2196 44.1947 64.2196 44.0506 64.4415C43.2652 65.7014 42.74 66.7775 42.5781 68.2559C40.6426 69.042 38.5516 69.5229 36.5356 68.7151C36.1206 68.4945 36.1206 68.4945 35.7422 68.2559C35.573 68.1497 35.573 68.1497 35.4004 68.0414C34.4368 67.3259 33.8217 66.3462 33.1438 65.3787C32.1858 64.0268 31.1767 63.0058 29.4922 62.6484C28.9021 62.6075 28.3245 62.6119 27.7344 62.6484C27.6699 62.8399 27.6055 63.0313 27.5391 63.2285C27.9996 63.6996 28.4565 64.1469 28.9673 64.5654C30.8002 66.0868 31.7157 67.943 32.7232 70.0558C33.61 71.6774 35.185 72.662 36.9492 73.1941C38.7339 73.4828 40.6053 73.3552 42.3828 73.0898C42.4022 73.8982 42.4163 74.7065 42.4257 75.5151C42.4296 75.7899 42.435 76.0646 42.4417 76.3393C42.4513 76.7354 42.4557 77.1312 42.4591 77.5273C42.4652 77.8842 42.4652 77.8842 42.4715 78.2484C42.3658 79.014 42.1626 79.328 41.6016 79.8574C39.8353 80.2071 38.2659 79.2553 36.7187 78.5039C36.5319 78.4155 36.5319 78.4155 36.3413 78.3254C33.3011 76.877 30.7396 74.8163 28.3203 72.5098C28.1952 72.3959 28.0701 72.2819 27.9411 72.1646C23.6275 68.1319 20.9231 62.1311 19.7266 56.4609C19.6937 56.3291 19.6608 56.1973 19.6269 56.0614C19.2451 54.3454 19.2701 52.622 19.2743 50.8738C19.2749 50.3383 19.2703 49.8031 19.2654 49.2677C19.2551 46.4595 19.6181 43.8782 20.459 41.1855C20.5093 41.0233 20.5596 40.8611 20.6114 40.6939C22.1947 35.7329 24.9146 31.5933 28.5156 27.8438C28.6387 27.7094 28.7619 27.5751 28.8887 27.4366C34.2346 21.7953 42.2557 19.0508 49.9023 19.0701Z" fill="#FDFDFD"/>
</svg>
