<svg width="100" height="100" viewBox="0 0 100 100" fill="none" xmlns="http://www.w3.org/2000/svg">
<path d="M30.5222 1.8287C35.7912 -0.806007 40.6214 -0.437867 44.4908 1.93677C48.2269 4.23011 50.8038 8.22231 52.191 12.3839C53.738 17.0289 52.293 22.3095 50.7861 26.0553C50.0051 27.9961 49.1452 29.6813 48.4805 30.8736C48.4179 30.9858 48.3414 31.085 48.2824 31.1888L68.7984 51.7048C68.9042 51.6446 69.017 51.5796 69.1316 51.5157C70.3236 50.8512 72.0018 49.9904 73.9409 49.2101C77.6876 47.7025 82.9748 46.2653 87.6213 47.8141C91.7822 49.2017 95.7668 51.7786 98.0594 55.5144C100.433 59.383 100.809 64.2065 98.1765 69.4739C95.4436 74.9397 90.0714 77.5099 85.793 78.7323C83.6175 79.3538 81.6088 79.6588 80.1462 79.813C80.0404 79.8242 79.9312 79.8214 79.831 79.831C79.8214 79.9314 79.8241 80.0403 79.8129 80.1462C79.6588 81.6088 79.3537 83.6176 78.7322 85.7931C77.5098 90.0715 74.9397 95.4438 69.4739 98.1766C64.2063 100.809 59.3829 100.433 55.5143 98.0595C52.2455 96.0535 49.8641 92.752 48.3904 89.1704L47.814 87.6214C46.2651 82.9747 47.7025 77.6877 49.21 73.941C49.9903 72.0016 50.8511 70.3237 51.5156 69.1317C51.5796 69.0169 51.6444 68.9044 51.7047 68.7985L31.1886 48.2825C31.0849 48.3415 30.9857 48.418 30.8734 48.4806C29.6812 49.1452 27.996 50.0052 26.0551 50.7862C22.3094 52.2931 17.0289 53.7381 12.3838 52.1911C8.22208 50.8039 4.22985 48.227 1.93661 44.4909C-0.437914 40.6215 -0.80586 35.7911 1.82853 30.5223C4.56093 25.0602 9.92599 22.4957 14.203 21.273C16.3811 20.6507 18.3958 20.3373 19.8589 20.1832C19.9604 20.1726 20.0597 20.1655 20.1561 20.1562C20.1654 20.0598 20.1724 19.9605 20.1831 19.859C20.3371 18.3959 20.6506 16.3812 21.2729 14.2032C22.4956 9.92616 25.06 4.5612 30.5222 1.8287ZM42.0771 5.87246C39.6664 4.39305 36.5381 3.97662 32.5846 5.95352C28.8299 7.8323 26.7869 11.6832 25.7039 15.473C25.1734 17.3297 24.9014 19.0707 24.7672 20.3454C24.7008 20.978 24.6663 21.4933 24.6502 21.8404C24.6422 22.0124 24.643 22.1435 24.6412 22.2276V24.6413H22.2275C22.1434 24.6431 22.0122 24.6423 21.8402 24.6503C21.4932 24.6664 20.9777 24.7009 20.3452 24.7674C19.0705 24.9016 17.3296 25.1735 15.4729 25.704C11.6828 26.787 7.83198 28.8302 5.95336 32.5847C3.9767 36.5381 4.39291 39.6665 5.8723 42.0772C7.43343 44.6195 10.3659 46.6552 13.8428 47.8141C16.8354 48.8102 20.7709 47.9421 24.3349 46.5082C26.0488 45.8186 27.5497 45.0525 28.6219 44.4548C29.1551 44.1576 29.5789 43.901 29.8647 43.7253C30.0071 43.6378 30.1189 43.572 30.189 43.5272C30.224 43.5048 30.2545 43.4923 30.27 43.4822L30.279 43.4642L31.8551 42.4285L57.5767 68.15L56.532 69.7171L56.523 69.7351C56.5129 69.7506 56.4912 69.7725 56.469 69.8072C56.4242 69.8772 56.3586 69.9886 56.2708 70.1314C56.0954 70.4168 55.8474 70.8416 55.5503 71.3742C54.9526 72.4464 54.178 73.9463 53.4879 75.6612C52.0533 79.2267 51.1933 83.169 52.191 86.1624L52.6593 87.4412C53.8603 90.3524 55.7031 92.7675 57.928 94.1328C60.3377 95.61 63.4612 96.026 67.4115 94.0518C71.168 92.1736 73.218 88.3144 74.3012 84.5232C74.8307 82.6686 75.0947 80.9336 75.2288 79.6599C75.2955 79.0261 75.3297 78.5128 75.3459 78.1649C75.354 77.9911 75.362 77.8533 75.3639 77.7686V75.364H77.7685C77.8532 75.3621 77.991 75.354 78.1648 75.346C78.5127 75.3298 79.0262 75.2956 79.6598 75.2289C80.9336 75.0948 82.6685 74.8308 84.5232 74.3012C88.3143 73.2181 92.1734 71.1681 94.0517 67.4115C96.0259 63.4614 95.61 60.3377 94.1328 57.9281C92.5724 55.3855 89.6389 53.3506 86.1623 52.1911C83.169 51.1934 79.2267 52.0533 75.6611 53.488C73.9461 54.1782 72.4465 54.9526 71.3742 55.5504C70.8416 55.8474 70.4168 56.0955 70.1313 56.2709C69.9885 56.3587 69.8771 56.4333 69.8071 56.4781C69.7746 56.4989 69.735 56.5231 69.735 56.5231L69.717 56.5321L68.15 57.5768L42.4283 31.8552L43.4641 30.2792L43.4731 30.2701C43.4832 30.2546 43.5047 30.2241 43.5271 30.1891C43.5719 30.119 43.638 30.0068 43.7252 29.8649C43.9009 29.579 44.1576 29.1549 44.4547 28.622C45.0524 27.5498 45.8186 26.0487 46.5081 24.3351C47.942 20.7711 48.8101 16.8354 47.814 13.8429C46.6551 10.366 44.6193 7.43366 42.0771 5.87246Z" fill="#564423"/>
</svg>
