<svg width="100" height="100" viewBox="0 0 100 100" fill="none" xmlns="http://www.w3.org/2000/svg">
<path d="M95.2381 50C95.2381 25.0157 74.9843 4.76191 50 4.76191C25.0157 4.76191 4.76191 25.0157 4.76191 50C4.76191 74.9843 25.0157 95.2381 50 95.2381C74.9843 95.2381 95.2381 74.9843 95.2381 50ZM100 50C100 77.6142 77.6142 100 50 100C22.3858 100 0 77.6142 0 50C0 22.3858 22.3858 0 50 0C77.6142 0 100 22.3858 100 50Z" fill="#564423"/>
<path d="M76.8973 57.8311C77.6839 57.0516 78.9348 56.9046 79.8921 57.5428C80.8493 58.1809 81.1924 59.3909 80.7757 60.4167L80.5525 60.8445L80.5432 60.8538L80.5339 60.8724C80.5339 60.8724 80.5176 60.902 80.506 60.9189C80.4807 60.9555 80.4471 61.0066 80.4036 61.0677C80.3152 61.1921 80.1864 61.3638 80.0223 61.5792C79.6918 62.0131 79.2008 62.6186 78.5621 63.3371C77.2867 64.7718 75.3906 66.6758 72.8609 68.5733C67.7914 72.3754 60.156 76.1905 50 76.1905C39.844 76.1905 32.2086 72.3754 27.1391 68.5733C24.6094 66.6758 22.7133 64.7718 21.4379 63.3371C20.7992 62.6186 20.3082 62.0131 19.9777 61.5792C19.8136 61.3638 19.6848 61.1921 19.5964 61.0677C19.5529 61.0066 19.5193 60.9555 19.494 60.9189C19.4824 60.902 19.4661 60.8724 19.4661 60.8724L19.4568 60.8538L19.4475 60.8445L19.2243 60.4167C18.8076 59.3909 19.1507 58.1809 20.1079 57.5428C21.202 56.8134 22.6802 57.109 23.4096 58.2031L23.4189 58.2124C23.4307 58.2296 23.454 58.2633 23.484 58.3054C23.5441 58.3898 23.6413 58.524 23.7723 58.6961C24.0369 59.0432 24.4407 59.5561 24.9907 60.1749C26.096 61.4183 27.773 63.087 30.0037 64.76C34.4581 68.1004 41.1093 71.4286 50 71.4286C58.8907 71.4286 65.5419 68.1004 69.9963 64.76C72.227 63.087 73.904 61.4183 75.0093 60.1749C75.5593 59.5561 75.9631 59.0432 76.2277 58.6961C76.3588 58.524 76.456 58.3898 76.516 58.3054C76.546 58.2633 76.5693 58.2296 76.5811 58.2124L76.5904 58.2031L76.8973 57.8311Z" fill="#564423"/>
<path d="M59.5238 45.2381C59.5238 42.6082 61.6558 40.4762 64.2857 40.4762C66.9156 40.4762 69.0476 42.6082 69.0476 45.2381C69.0476 47.868 66.9156 50 64.2857 50C61.6558 50 59.5238 47.868 59.5238 45.2381Z" fill="#564423"/>
<path d="M30.9524 45.2381C30.9524 42.6082 33.0844 40.4762 35.7143 40.4762C38.3442 40.4762 40.4762 42.6082 40.4762 45.2381C40.4762 47.868 38.3442 50 35.7143 50C33.0844 50 30.9524 47.868 30.9524 45.2381Z" fill="#564423"/>
</svg>
