<svg width="100" height="100" viewBox="0 0 100 100" fill="none" xmlns="http://www.w3.org/2000/svg">
<path d="M49.6376 0.00210201C49.8507 0.00142085 50.0638 0.000739674 50.2834 3.78656e-05C55.563 -0.00568195 60.4913 0.696204 65.522 2.33905C65.707 2.39877 65.8921 2.45849 66.0827 2.52002C75.0432 5.46147 83.3579 11.1963 89.1588 18.6537C89.3078 18.8442 89.3078 18.8442 89.4599 19.0386C94.521 25.5498 98.0996 33.3232 99.4149 41.4882C99.4765 41.8499 99.4765 41.8499 99.5393 42.2189C99.9259 44.7014 99.9906 47.151 99.9947 49.6592C99.9955 49.8725 99.9963 50.0857 99.997 50.3054C100.002 53.7623 99.7902 57.0527 99.0244 60.4353C98.983 60.6269 98.9417 60.8184 98.8991 61.0157C96.5044 71.9141 90.3304 81.9869 81.5665 88.9199C81.3261 89.1136 81.0858 89.3074 80.8455 89.5011C79.1689 90.841 77.4416 92.0395 75.573 93.1014C75.3894 93.2063 75.2057 93.3113 75.0165 93.4195C70.1994 96.1413 65.1018 98.1571 59.6482 99.1688C59.4908 99.198 59.3335 99.2272 59.1713 99.2574C56.1864 99.7981 53.2781 100.008 50.2473 99.9986C50.0369 99.9988 49.8264 99.999 49.6096 99.9991C46.1769 99.9967 42.8979 99.7738 39.5395 99.0139C39.3479 98.9726 39.1563 98.9313 38.9589 98.8887C28.05 96.4935 17.9894 90.3208 11.0447 81.5624C10.8609 81.338 10.6771 81.1135 10.4878 80.8822C4.2766 73.147 0.151669 62.891 0.0181913 52.9195C0.0151847 52.7233 0.0121782 52.527 0.00908051 52.3249C-0.071145 46.1258 0.353475 40.3912 2.31466 34.4625C2.37817 34.2687 2.44168 34.0749 2.50711 33.8752C4.1937 28.8384 6.64288 24.0873 9.88666 19.878C10.066 19.6441 10.2454 19.4102 10.4302 19.1693C11.7058 17.5601 13.0879 16.0463 14.489 14.5466C14.6309 14.3938 14.7727 14.2411 14.9188 14.0837C21.7456 6.96074 31.8233 2.13571 41.4781 0.581724C41.7195 0.540677 41.9609 0.499631 42.2095 0.457341C44.688 0.0717985 47.1333 0.00601409 49.6376 0.00210201ZM22.6387 30.4578C22.3074 31.1264 22.3247 31.5671 22.4146 32.307C23.2721 33.252 24.2575 34.0676 25.2268 34.8956C25.3808 35.0275 25.5347 35.1594 25.6933 35.2954C26.7651 36.2109 27.8529 37.1042 28.9519 37.987C29.7197 38.613 30.4733 39.2543 31.2262 39.8981C32.3886 40.8916 33.5647 41.8649 34.7557 42.8242C35.61 43.5191 36.4512 44.2289 37.2931 44.9388C38.0799 45.601 38.8735 46.2533 39.6744 46.8985C40.6589 47.6931 41.6254 48.5061 42.5872 49.3279C45.987 52.655 45.987 52.655 50.2326 54.1508C52.2001 53.9105 53.5313 52.4926 54.9378 51.224C55.4696 50.7506 56.0201 50.3018 56.5724 49.8525C57.6335 48.9824 58.6787 48.0953 59.721 47.2029C60.5027 46.5348 61.2914 45.8764 62.0875 45.2252C63.2081 44.3066 64.3042 43.362 65.3983 42.4122C66.4096 41.5362 67.4379 40.6835 68.4736 39.8365C69.2387 39.2012 69.9905 38.5519 70.7415 37.9001C72.3181 36.5325 73.9151 35.1924 75.5493 33.8937C75.759 33.727 75.9687 33.5603 76.1848 33.3886C76.4673 33.1664 76.4673 33.1664 76.7555 32.9397C77.3388 32.4355 77.4111 32.205 77.4919 31.4342C77.4803 30.6948 77.4803 30.6948 76.996 30.1798C75.9952 29.414 74.9575 29.5329 73.7551 29.5386C73.4385 29.5388 73.4385 29.5388 73.1156 29.539C72.4055 29.5397 71.6954 29.542 70.9854 29.5444C70.4774 29.5452 69.9695 29.546 69.4616 29.5466C68.0796 29.5488 66.6976 29.5526 65.3157 29.5568C64.4527 29.5594 63.5898 29.5617 62.7268 29.5639C60.0282 29.571 57.3295 29.579 54.6309 29.5883C54.3203 29.5894 54.0097 29.5904 53.699 29.5915C53.545 29.5921 53.3909 29.5926 53.2322 29.5931C50.7357 29.6017 48.2392 29.6071 45.7428 29.6112C43.1796 29.6154 40.6164 29.6223 38.0532 29.6316C36.6141 29.6369 35.175 29.6409 33.7359 29.6423C32.3824 29.6436 31.0288 29.6482 29.6753 29.6554C29.1783 29.6574 28.6814 29.6583 28.1844 29.6579C27.5062 29.6575 26.8282 29.6614 26.1501 29.6664C25.9532 29.6653 25.7562 29.6642 25.5533 29.663C24.4125 29.6769 23.6238 29.8182 22.6387 30.4578ZM22.2036 37.6218C22.2061 41.1405 22.2113 44.6593 22.2196 48.178C22.2234 49.812 22.2264 51.446 22.2273 53.0799C22.2281 54.6574 22.2314 56.2348 22.2362 57.8123C22.2376 58.4135 22.2382 59.0147 22.238 59.616C22.2378 60.4594 22.2406 61.3027 22.244 62.1461C22.2432 62.3936 22.2425 62.641 22.2418 62.896C22.256 65.0748 22.4651 67.1059 23.9396 68.8062C25.6121 70.2334 27.6636 70.4814 29.7958 70.46C29.9774 70.46 30.1589 70.4601 30.3459 70.4601C30.9479 70.4596 31.5498 70.4559 32.1517 70.4522C32.5859 70.4512 33.02 70.4503 33.4541 70.4497C34.6288 70.4474 35.8035 70.4421 36.9782 70.4362C38.2099 70.4303 39.4415 70.4268 40.6731 70.4228C42.7411 70.4158 44.8091 70.4069 46.8771 70.3969C49.2651 70.3853 51.6531 70.3771 54.0411 70.3706C56.0945 70.3649 58.1478 70.3574 60.2012 70.3485C61.4262 70.3431 62.6513 70.3384 63.8763 70.3353C65.0282 70.3322 66.1801 70.3269 67.332 70.3199C67.7538 70.3177 68.1756 70.3163 68.5973 70.3157C69.1749 70.3148 69.7525 70.311 70.3301 70.3065C70.4953 70.3069 70.6604 70.3073 70.8306 70.3078C72.8483 70.2847 74.6244 69.9449 76.0873 68.4607C77.8231 66.5227 77.8106 64.5129 77.7928 62.0145C77.7914 61.6153 77.7914 61.6153 77.7899 61.2081C77.7864 60.3305 77.7813 59.4529 77.7761 58.5754C77.7734 57.9661 77.7708 57.3569 77.7682 56.7476C77.7621 55.3092 77.7547 53.8707 77.747 52.4323C77.7382 50.7941 77.7307 49.1558 77.7233 47.5176C77.7082 44.149 77.6913 40.7804 77.6734 37.4118C76.7447 37.8503 76.0316 38.4631 75.2676 39.1393C74.9785 39.3919 74.6893 39.6445 74.4001 39.897C74.1812 40.0889 74.1812 40.0889 73.9578 40.2845C73.3043 40.8552 72.6452 41.4193 71.9848 41.982C71.8611 42.0874 71.7374 42.1929 71.61 42.3015C70.6297 43.135 69.6369 43.9528 68.6422 44.769C67.4162 45.7838 66.2099 46.8217 65.001 47.8567C63.3856 49.2398 61.7652 50.6139 60.1195 51.9609C59.5257 52.4535 58.9407 52.9544 58.3571 53.459C53.2886 57.8308 53.2886 57.8308 49.5533 57.8501C46.9624 57.6438 45.0596 56.4712 43.1981 54.728C42.6083 54.1823 42.0005 53.6762 41.3739 53.1736C40.4217 52.4089 39.4815 51.6324 38.5482 50.8449C37.6331 50.0733 36.7126 49.3103 35.7804 48.5594C34.653 47.6495 33.5501 46.7133 32.4489 45.7721C31.4247 44.8985 30.3845 44.0469 29.3364 43.2021C28.6238 42.6228 27.9191 42.0349 27.2162 41.4439C27.0919 41.3396 26.9676 41.2352 26.8395 41.1278C26.1687 40.5639 25.5005 39.997 24.835 39.4268C24.6975 39.3096 24.5599 39.1925 24.4182 39.0717C24.153 38.8457 23.8886 38.6188 23.625 38.3909C23.002 37.8004 23.002 37.8004 22.2036 37.6218Z" fill="#E0D9D2"/>
</svg>
