<svg width="340" height="123" viewBox="0 0 340 123" fill="none" xmlns="http://www.w3.org/2000/svg">
<g filter="url(#filter0_d_0_71)">
<path d="M136.338 72.453C136.338 76.3274 135.815 79.5636 134.768 82.1617C133.768 84.7142 132.334 86.7654 130.469 88.3151C128.649 89.8649 126.443 90.9588 123.85 91.597C121.302 92.2351 118.504 92.5542 115.456 92.5542C112.408 92.5542 109.61 92.2351 107.063 91.597C104.515 90.9588 102.308 89.8649 100.443 88.3151C98.6235 86.7654 97.1904 84.7142 96.1441 82.1617C95.1432 79.5636 94.6428 76.3274 94.6428 72.453V39.2245C94.6428 38.3129 95.0977 37.8571 96.0076 37.8571H107.063C108.018 37.8571 108.496 38.3129 108.496 39.2245V72.9316C108.496 75.7576 109.019 77.8315 110.065 79.1534C111.157 80.4296 112.954 81.0678 115.456 81.0678C117.958 81.0678 119.755 80.4296 120.847 79.1534C121.939 77.8315 122.485 75.7576 122.485 72.9316V39.2245C122.485 38.3129 122.94 37.8571 123.85 37.8571H134.905C135.86 37.8571 136.338 38.3129 136.338 39.2245V72.453Z" fill="#564423"/>
<path fill-rule="evenodd" clip-rule="evenodd" d="M73.1106 52.6253C72.8377 52.8988 72.5647 53.2178 72.2917 53.5825L52.6384 79.7004C52.4109 80.065 52.2517 80.3841 52.1607 80.6576C52.0697 80.8855 52.0242 81.2045 52.0242 81.6147V90.1612C52.0242 91.0728 52.5019 91.5286 53.4573 91.5286H90.512C91.4674 91.5286 91.9451 91.0728 91.9451 90.1612V80.5892C91.9451 79.6776 91.4674 79.2218 90.512 79.2218H69.6303L88.4648 53.7876C88.7378 53.4229 88.806 53.0811 88.6695 52.762C88.5331 52.3974 88.2146 52.2151 87.7142 52.2151H74.2707C73.8158 52.2151 73.4291 52.3518 73.1106 52.6253Z" fill="#564423"/>
<path d="M54.4809 50.1639C53.5255 50.1639 53.0478 49.7081 53.0478 48.7965V39.2245C53.0478 38.3129 53.5255 37.8571 54.4809 37.8571H89.2155C90.2163 37.8571 90.7168 38.3129 90.7168 39.2245V48.7965C90.7168 49.7081 90.2163 50.1639 89.2155 50.1639H54.4809Z" fill="#564423"/>
<path d="M54.4809 50.1639C53.5255 50.1639 53.0478 49.7081 53.0478 48.7965V39.2245C53.0478 38.3129 53.5255 37.8571 54.4809 37.8571H89.2155C90.2163 37.8571 90.7168 38.3129 90.7168 39.2245V48.7965C90.7168 49.7081 90.2163 50.1639 89.2155 50.1639H54.4809Z" fill="white"/>
<path d="M49.2989 72.453C49.2989 76.3274 48.7757 79.5636 47.7293 82.1617C46.7285 84.7142 45.2954 86.7654 43.4302 88.3151C41.6104 89.8649 39.404 90.9588 36.8108 91.597C34.2631 92.2351 31.4653 92.5542 28.4172 92.5542C25.3691 92.5542 22.5712 92.2351 20.0236 91.597C17.4759 90.9588 15.2694 89.8649 13.4042 88.3151C11.5844 86.7654 10.1514 84.7142 9.10502 82.1617C8.10416 79.5636 7.60373 76.3274 7.60373 72.453V39.2245C7.60373 38.3129 8.05867 37.8571 8.96854 37.8571H20.0236C20.9789 37.8571 21.4566 38.3129 21.4566 39.2245V72.9316C21.4566 75.7576 21.9798 77.8315 23.0262 79.1534C24.118 80.4296 25.915 81.0678 28.4172 81.0678C30.9193 81.0678 32.7164 80.4296 33.8082 79.1534C34.9001 77.8315 35.446 75.7576 35.446 72.9316V39.2245C35.446 38.3129 35.9009 37.8571 36.8108 37.8571H47.8658C48.8212 37.8571 49.2989 38.3129 49.2989 39.2245V72.453Z" fill="white"/>
<path fill-rule="evenodd" clip-rule="evenodd" d="M13.8728 27.7769L13.872 27.7743L13.8625 27.7436C13.8517 27.708 13.8335 27.6478 13.809 27.5648C13.7599 27.3987 13.6859 27.1421 13.5951 26.8096C13.4131 26.1424 13.167 25.1808 12.9209 24.0384C12.4165 21.6962 11.9668 18.8401 11.9721 16.2741C11.9778 13.5165 12.5116 12.3394 12.728 12.0567C12.7453 12.0516 12.7687 12.0456 12.7991 12.0393C13.0565 11.986 13.8535 11.9097 15.4522 12.3469C23.2794 14.4878 27.2174 17.6086 29.1417 19.7457C30.1238 20.8364 30.6522 21.7487 30.9137 22.2861C31.0455 22.5569 31.1117 22.7371 31.134 22.8019L31.1353 22.8054C31.9528 25.9265 35.1041 27.8524 38.2648 27.1248C41.4869 26.383 43.4987 23.1648 42.7584 19.9366L36.9244 21.2796C42.7584 19.9366 42.7573 19.932 42.7563 19.9274L42.7541 19.9179L42.7495 19.8984L42.7394 19.8563C42.7323 19.827 42.7244 19.7951 42.7156 19.7608C42.698 19.6921 42.677 19.6135 42.652 19.5255C42.602 19.3494 42.5361 19.1355 42.4508 18.8879C42.2802 18.3926 42.0313 17.7619 41.6749 17.0294C40.96 15.5604 39.8193 13.697 38.0308 11.7108C34.4138 7.69379 28.4039 3.45545 18.6051 0.775383C12.8803 -0.790427 7.3625 -0.0920836 3.66799 4.2142C0.555382 7.84224 0.00736444 12.7345 7.19198e-05 16.2492C-0.00779383 20.0399 0.630958 23.8419 1.21823 26.5686C1.51803 27.9605 1.8186 29.1361 2.04679 29.9725C2.16117 30.3917 2.25813 30.7285 2.32879 30.9678C2.36414 31.0875 2.39297 31.183 2.41419 31.2525L2.44018 31.337L2.44865 31.3642L2.45294 31.3779C2.45294 31.3779 2.45396 31.3812 8.16296 29.5777L2.45396 31.3812C3.44808 34.5402 6.80998 36.2937 9.96297 35.2977C13.1151 34.3019 14.8651 30.9352 13.8728 27.7769Z" fill="#564423"/>
<path fill-rule="evenodd" clip-rule="evenodd" d="M129.008 27.7653L129.009 27.7626L129.019 27.7319C129.029 27.6963 129.048 27.6361 129.072 27.5532C129.121 27.387 129.195 27.1305 129.286 26.7979C129.468 26.1307 129.714 25.1692 129.96 24.0267C130.465 21.6845 130.914 18.8284 130.909 16.2624C130.903 13.5048 130.369 12.3277 130.153 12.045C130.136 12.04 130.112 12.034 130.082 12.0276C129.825 11.9743 129.028 11.898 127.429 12.3353C119.602 14.4761 115.664 17.597 113.739 19.734C112.757 20.8247 112.229 21.7371 111.967 22.2745C111.836 22.5452 111.769 22.7254 111.747 22.7902L111.746 22.7938C110.928 25.9148 107.777 27.8407 104.616 27.1131C101.394 26.3714 99.3824 23.1531 100.123 19.9249L105.957 21.2679C100.123 19.9249 100.124 19.9203 100.125 19.9157L100.127 19.9063L100.132 19.8867L100.142 19.8446C100.149 19.8153 100.157 19.7834 100.165 19.7491C100.183 19.6804 100.204 19.6018 100.229 19.5138C100.279 19.3377 100.345 19.1238 100.43 18.8762C100.601 18.3809 100.85 17.7502 101.206 17.0177C101.921 15.5487 103.062 13.6853 104.85 11.6991C108.467 7.68212 114.477 3.44378 124.276 0.763717C130.001 -0.802092 135.519 -0.103749 139.213 4.20254C142.326 7.83057 142.874 12.7228 142.881 16.2375C142.889 20.0282 142.25 23.8302 141.663 26.5569C141.363 27.9489 141.062 29.1245 140.834 29.9608C140.72 30.38 140.623 30.7168 140.552 30.9561C140.517 31.0758 140.488 31.1714 140.467 31.2408L140.441 31.3254L140.432 31.3526L140.428 31.3663C140.428 31.3663 140.427 31.3695 134.718 29.5661L140.427 31.3695C139.433 34.5286 136.071 36.282 132.918 35.286C129.766 34.2903 128.016 30.9235 129.008 27.7653Z" fill="white"/>
<path d="M307.014 103C304.588 103 302.479 102.65 300.687 101.951C298.895 101.268 297.492 100.299 296.477 99.0443C295.478 97.7892 294.916 96.3436 294.789 94.7073H302.59C302.749 95.6128 303.232 96.28 304.041 96.709C304.849 97.1538 305.904 97.3762 307.204 97.3762C310.47 97.3762 312.104 95.8511 312.104 92.8009V88.2256H311.818C311.279 89.4647 310.383 90.4735 309.131 91.252C307.878 92.0304 306.332 92.4196 304.493 92.4196C302.527 92.4196 300.759 91.9589 299.189 91.0375C297.635 90.1161 296.398 88.7101 295.478 86.8196C294.575 84.9132 294.123 82.5541 294.123 79.7422C294.123 76.8509 294.591 74.4123 295.526 72.4265C296.462 70.4407 297.714 68.9632 299.284 67.9942C300.854 67.0251 302.574 66.5405 304.445 66.5405C306.348 66.5405 307.902 67.0013 309.107 67.9227C310.328 68.8282 311.216 69.9561 311.771 71.3065H312.008V66.8742H320V92.8962C320 95.0409 319.461 96.8678 318.383 98.377C317.304 99.9021 315.782 101.054 313.816 101.832C311.866 102.611 309.598 103 307.014 103ZM307.204 86.5098C308.742 86.5098 309.939 85.9141 310.796 84.7226C311.668 83.5311 312.104 81.871 312.104 79.7422C312.104 77.5975 311.676 75.9136 310.819 74.6903C309.963 73.4512 308.758 72.8316 307.204 72.8316C305.666 72.8316 304.469 73.4591 303.613 74.7141C302.772 75.9533 302.352 77.6293 302.352 79.7422C302.352 81.871 302.772 83.5311 303.613 84.7226C304.469 85.9141 305.666 86.5098 307.204 86.5098Z" fill="#564423"/>
<path d="M273.335 92.7532H265.296V66.8742H272.907V71.5924H273.193C273.795 70.0038 274.778 68.7646 276.142 67.875C277.521 66.9854 279.155 66.5405 281.041 66.5405C282.833 66.5405 284.403 66.9456 285.751 67.7559C287.114 68.5502 288.161 69.6861 288.89 71.1635C289.635 72.6251 290 74.3249 289.984 76.2631V92.7532H281.993V77.7882C281.993 76.3266 281.62 75.1828 280.875 74.3567C280.13 73.5306 279.091 73.1175 277.759 73.1175C276.411 73.1175 275.333 73.5465 274.525 74.4044C273.732 75.2622 273.335 76.4378 273.335 77.9311V92.7532Z" fill="#564423"/>
<path d="M252.12 66.8742H260.159V92.7532H252.12V66.8742ZM256.163 63.7763C255.418 63.7763 254.728 63.6095 254.094 63.2759C253.46 62.9264 252.952 62.4577 252.572 61.8699C252.207 61.2662 252.025 60.6149 252.025 59.9159C252.025 59.2169 252.207 58.5735 252.572 57.9857C252.952 57.382 253.46 56.9133 254.094 56.5797C254.728 56.2302 255.418 56.0555 256.163 56.0555C256.908 56.0555 257.598 56.2302 258.232 56.5797C258.883 56.9133 259.398 57.382 259.778 57.9857C260.159 58.5735 260.349 59.2169 260.349 59.9159C260.349 60.6149 260.159 61.2662 259.778 61.8699C259.398 62.4577 258.883 62.9264 258.232 63.2759C257.598 63.6095 256.908 63.7763 256.163 63.7763Z" fill="#564423"/>
<path d="M231.475 93.1345C229.525 93.1345 227.765 92.6261 226.195 91.6094C224.625 90.5927 223.381 89.0834 222.461 87.0817C221.557 85.0801 221.105 82.6653 221.105 79.8375C221.105 76.9303 221.573 74.4758 222.509 72.4741C223.46 70.4724 224.713 68.9871 226.266 68.018C227.836 67.033 229.557 66.5405 231.428 66.5405C233.33 66.5405 234.876 66.9933 236.066 67.8988C237.271 68.8044 238.166 69.9402 238.753 71.3065H238.943V58.2478H246.935V92.7532H238.991V88.5592H238.753C238.166 89.8778 237.263 90.9739 236.042 91.8477C234.821 92.7056 233.299 93.1345 231.475 93.1345ZM234.187 86.8435C235.725 86.8435 236.922 86.208 237.778 84.9371C238.65 83.6662 239.086 81.9504 239.086 79.7899C239.086 77.6293 238.658 75.9295 237.802 74.6903C236.946 73.4512 235.74 72.8316 234.187 72.8316C232.649 72.8316 231.451 73.4591 230.595 74.7141C229.755 75.9692 229.335 77.6611 229.335 79.7899C229.335 81.9663 229.763 83.69 230.619 84.9609C231.475 86.2159 232.664 86.8435 234.187 86.8435Z" fill="#564423"/>
<path d="M200.318 92.7532H192.279V66.8742H199.89V71.5924H200.175C200.778 70.0038 201.761 68.7646 203.124 67.875C204.504 66.9854 206.137 66.5405 208.024 66.5405C209.816 66.5405 211.385 66.9456 212.733 67.7559C214.097 68.5502 215.143 69.6861 215.873 71.1635C216.618 72.6251 216.983 74.3249 216.967 76.2631V92.7532H208.975V77.7882C208.975 76.3266 208.603 75.1828 207.857 74.3567C207.112 73.5306 206.074 73.1175 204.742 73.1175C203.394 73.1175 202.316 73.5465 201.507 74.4044C200.714 75.2622 200.318 76.4378 200.318 77.9311V92.7532Z" fill="#564423"/>
<path d="M163.595 85.5566C163.595 82.8877 164.475 80.9178 166.235 79.6469C167.995 78.376 170.302 77.6452 173.156 77.4546C174.583 77.3592 176.328 77.2798 178.389 77.2163C178.643 77.1845 178.96 77.1686 179.34 77.1686V75.0716C179.34 74.1661 179.031 73.475 178.413 72.9984C177.794 72.5059 176.93 72.2597 175.82 72.2597C174.742 72.2597 173.878 72.4821 173.228 72.9269C172.578 73.3717 172.173 74.0231 172.015 74.8809H164.546C164.657 73.3241 165.165 71.9181 166.069 70.6631C166.988 69.3922 168.288 68.3913 169.969 67.6605C171.666 66.9139 173.68 66.5405 176.01 66.5405C178.167 66.5405 180.101 66.8821 181.814 67.5652C183.542 68.2325 184.898 69.2174 185.881 70.5201C186.88 71.8069 187.379 73.3558 187.379 75.1669V92.7532H179.816V89.1311H179.626C178.896 90.4656 177.905 91.4823 176.653 92.1813C175.4 92.8803 173.886 93.2298 172.11 93.2298C170.429 93.2298 168.947 92.9439 167.662 92.3719C166.394 91.8 165.395 90.9422 164.665 89.7983C163.952 88.6386 163.595 87.2247 163.595 85.5566ZM171.206 85.223C171.206 86.0809 171.507 86.7402 172.11 87.2009C172.728 87.6616 173.537 87.892 174.536 87.892C175.44 87.892 176.264 87.7093 177.009 87.3439C177.755 86.9785 178.341 86.4701 178.769 85.8188C179.197 85.1515 179.404 84.3969 179.388 83.555V81.8869H178.912L174.488 82.1728C173.473 82.2999 172.673 82.6335 172.086 83.1737C171.499 83.6979 171.206 84.3811 171.206 85.223Z" fill="#564423"/>
<path d="M159.647 92.7532H151.608V58.2478H159.647V92.7532Z" fill="#564423"/>
</g>
<defs>
<filter id="filter0_d_0_71" x="0" y="0" width="340" height="123" filterUnits="userSpaceOnUse" color-interpolation-filters="sRGB">
<feFlood flood-opacity="0" result="BackgroundImageFix"/>
<feColorMatrix in="SourceAlpha" type="matrix" values="0 0 0 0 0 0 0 0 0 0 0 0 0 0 0 0 0 0 127 0" result="hardAlpha"/>
<feOffset dx="10" dy="10"/>
<feGaussianBlur stdDeviation="5"/>
<feComposite in2="hardAlpha" operator="out"/>
<feColorMatrix type="matrix" values="0 0 0 0 0 0 0 0 0 0 0 0 0 0 0 0 0 0 0.2 0"/>
<feBlend mode="normal" in2="BackgroundImageFix" result="effect1_dropShadow_0_71"/>
<feBlend mode="normal" in="SourceGraphic" in2="effect1_dropShadow_0_71" result="shape"/>
</filter>
</defs>
</svg>
