<svg width="100" height="100" viewBox="0 0 100 100" fill="none" xmlns="http://www.w3.org/2000/svg">
<path d="M49.8309 0.000354124C50.044 0.00047977 50.2571 0.000605418 50.4767 0.000734871C55.7563 0.0150038 60.6819 0.735543 65.7063 2.39742C65.8911 2.45784 66.0759 2.51826 66.2663 2.58052C75.2157 5.55587 83.5085 11.3222 89.2812 18.8014C89.4295 18.9925 89.4295 18.9925 89.5808 19.1875C94.6172 25.7178 98.1664 33.5047 99.4507 41.6747C99.511 42.0366 99.511 42.0366 99.5724 42.4058C99.9496 44.8897 100.005 47.3395 99.9997 49.8478C99.9996 50.061 99.9996 50.2743 99.9995 50.494C99.9916 53.9508 99.7672 57.2404 98.9885 60.6201C98.9464 60.8115 98.9044 61.0029 98.8611 61.2C96.4251 72.0893 90.213 82.1386 81.4229 89.0384C81.1818 89.2312 80.9408 89.424 80.6997 89.6169C79.0181 90.9504 77.2863 92.1423 75.4136 93.1971C75.2296 93.3014 75.0455 93.4057 74.8559 93.5131C70.0285 96.2167 64.9234 98.2132 59.4659 99.2043C59.3085 99.2329 59.151 99.2615 58.9888 99.291C56.0019 99.8205 53.0928 100.02 50.062 99.9985C49.8516 99.9978 49.6411 99.9972 49.4243 99.9966C45.9917 99.9811 42.7135 99.7458 39.358 98.9732C39.1666 98.9312 38.9751 98.8892 38.7779 98.8458C27.8781 96.4093 17.841 90.1986 10.9295 81.414C10.7466 81.1888 10.5636 80.9637 10.3751 80.7317C4.19329 72.973 0.107215 62.7015 0.0114905 52.7295C0.00922684 52.5333 0.00696323 52.337 0.00463102 52.1348C-0.0521244 45.9355 0.394204 40.2025 2.37782 34.2813C2.44207 34.0877 2.50631 33.8942 2.5725 33.6948C4.27814 28.6644 6.74529 23.9226 10.005 19.7256C10.1852 19.4924 10.3655 19.2592 10.5512 19.0189C11.8329 17.4146 13.2207 15.9061 14.6275 14.4116C14.7699 14.2594 14.9123 14.1073 15.0591 13.9505C21.9128 6.85334 32.0086 2.0665 41.6692 0.54908C41.9108 0.508948 42.1523 0.468815 42.4012 0.427467C44.8811 0.0513112 47.3266 -0.00521498 49.8309 0.000354124ZM22.7169 30.3536C22.3831 31.021 22.3987 31.4618 22.4858 32.2019C23.3397 33.1502 24.322 33.9695 25.2882 34.8011C25.4416 34.9337 25.595 35.0662 25.7531 35.2027C26.8215 36.1223 27.9059 37.0197 29.0016 37.9067C29.7669 38.5356 30.5181 39.1797 31.2686 39.8263C32.4272 40.8243 33.5996 41.802 34.7869 42.7658C35.6386 43.4639 36.4772 44.1769 37.3163 44.89C38.1006 45.5551 38.8917 46.2105 39.6902 46.8587C40.6717 47.657 41.6351 48.4737 42.5937 49.2991C45.981 52.639 45.981 52.639 50.2209 54.151C52.1892 53.9181 53.5259 52.5052 54.9371 51.2419C55.4707 50.7706 56.023 50.3238 56.5769 49.8767C57.6413 49.0106 58.6898 48.1275 59.7355 47.239C60.5198 46.5738 61.3109 45.9184 62.1094 45.2703C63.2336 44.3559 64.3332 43.4155 65.4309 42.4698C66.4455 41.5976 67.477 40.7488 68.516 39.9057C69.2835 39.2734 70.0377 38.6269 70.7911 37.978C72.3729 36.6164 73.975 35.2823 75.6141 33.9898C75.8244 33.8239 76.0348 33.658 76.2515 33.4871C76.5348 33.2659 76.5348 33.2659 76.8239 33.0403C77.4091 32.5383 77.4822 32.3081 77.566 31.5377C77.5571 30.7983 77.5571 30.7983 77.0749 30.2814C76.077 29.5118 75.0388 29.6268 73.8364 29.628C73.5198 29.627 73.5198 29.627 73.1969 29.6259C72.4868 29.6239 71.7767 29.6236 71.0667 29.6232C70.5587 29.6221 70.0508 29.621 69.5429 29.6197C68.1609 29.6167 66.7789 29.6152 65.3969 29.6142C64.534 29.6135 63.671 29.6126 62.8081 29.6115C60.1094 29.6084 57.4108 29.6061 54.7121 29.6052C54.4015 29.6051 54.0909 29.605 53.7803 29.6049C53.6262 29.6049 53.4721 29.6048 53.3134 29.6048C50.8169 29.6039 48.3205 29.5998 45.824 29.5945C43.2608 29.589 40.6976 29.5862 38.1344 29.5858C36.6953 29.5856 35.2562 29.5842 33.8171 29.5801C32.4635 29.5763 31.11 29.5758 29.7565 29.5778C29.2595 29.578 28.7625 29.577 28.2655 29.5747C27.5874 29.5718 26.9094 29.5731 26.2312 29.5755C26.0343 29.5737 25.8374 29.5718 25.6345 29.5699C24.4937 29.5794 23.7044 29.7177 22.7169 30.3536ZM22.2547 37.5159C22.2438 41.0346 22.2357 44.5534 22.2307 48.0721C22.2283 49.7061 22.2251 51.3401 22.2198 52.974C22.2147 54.5515 22.212 56.1289 22.2108 57.7064C22.2099 58.3076 22.2083 58.9088 22.2058 59.5101C22.2024 60.3534 22.202 61.1968 22.2022 62.0402C22.2005 62.2876 22.1989 62.5351 22.1971 62.79C22.2031 64.9689 22.4045 67.0008 23.8725 68.7066C25.5396 70.1402 27.5902 70.3959 29.7225 70.3826C29.904 70.3833 30.0856 70.3841 30.2726 70.3848C30.8745 70.3866 31.4765 70.3852 32.0784 70.3837C32.5125 70.3844 32.9467 70.3852 33.3808 70.3862C34.5555 70.3883 35.7302 70.3875 36.9049 70.386C38.1366 70.3848 39.3682 70.3859 40.5999 70.3866C42.6679 70.3875 44.7359 70.3864 46.8039 70.3842C49.1919 70.3817 51.5799 70.3825 53.9679 70.385C56.0213 70.3871 58.0747 70.3874 60.1281 70.3862C61.3531 70.3855 62.5782 70.3854 63.8032 70.3869C64.9551 70.3883 66.107 70.3873 67.259 70.3847C67.6807 70.384 68.1025 70.3842 68.5243 70.3852C69.1019 70.3865 69.6794 70.3849 70.257 70.3826C70.4222 70.3836 70.5874 70.3847 70.7576 70.3857C72.7753 70.3703 74.5527 70.0372 76.0212 68.5586C77.7644 66.6272 77.7594 64.6173 77.7511 62.1189C77.7512 61.7197 77.7512 61.7197 77.7512 61.3125C77.7511 60.4349 77.7493 59.5573 77.7475 58.6797C77.747 58.0705 77.7467 57.4612 77.7465 56.852C77.7458 55.4135 77.7439 53.9751 77.7415 52.5366C77.739 50.8983 77.7377 49.2601 77.7365 47.6218C77.7341 44.2532 77.73 40.8845 77.7249 37.5159C76.7945 37.9509 76.0791 38.561 75.3125 39.2343C75.0225 39.4859 74.7324 39.7374 74.4422 39.9888C74.2225 40.1797 74.2225 40.1797 73.9984 40.3746C73.3427 40.9428 72.6815 41.5044 72.019 42.0645C71.8949 42.1695 71.7708 42.2745 71.643 42.3826C70.6596 43.2124 69.6637 44.0264 68.6658 44.8389C67.4361 45.849 66.2258 46.8824 65.013 47.9128C63.3924 49.2897 61.7668 50.6577 60.116 51.9985C59.5204 52.4888 58.9334 52.9875 58.3479 53.4899C53.2629 57.8424 53.2629 57.8424 49.5275 57.8476C46.9375 57.6315 45.0391 56.4518 43.1842 54.7015C42.5965 54.1536 41.9906 53.6452 41.3659 53.1401C40.4166 52.3719 39.4794 51.5918 38.549 50.8008C37.6369 50.0258 36.7193 49.2593 35.79 48.5049C34.666 47.5906 33.5667 46.6503 32.469 45.7049C31.4481 44.8275 30.4112 43.972 29.3663 43.1232C28.6559 42.5412 27.9534 41.9506 27.2528 41.357C27.1289 41.2522 27.0049 41.1474 26.8773 41.0394C26.2085 40.473 25.5426 39.9035 24.8792 39.3308C24.7421 39.2132 24.605 39.0955 24.4638 38.9742C24.1994 38.7472 23.9358 38.5193 23.6731 38.2904C23.0524 37.6975 23.0524 37.6975 22.2547 37.5159Z" fill="#E0D9D2"/>
</svg>
