<svg width="100" height="100" viewBox="0 0 100 100" fill="none" xmlns="http://www.w3.org/2000/svg">
<path d="M38.0952 50C38.0952 36.2936 33.5406 27.2879 29.0923 21.7262C26.8559 18.9303 24.6243 16.9758 22.9725 15.7366C22.4541 15.3479 21.9807 15.0493 21.596 14.7972C11.3269 23.0937 4.7619 35.7777 4.7619 50C4.7619 64.2202 11.3295 76.8969 21.596 85.1935C21.9799 84.9418 22.4561 84.6506 22.9725 84.2634C24.6243 83.0242 26.8559 81.0697 29.0923 78.2738C33.5406 72.7121 38.0952 63.7064 38.0952 50ZM42.8571 50C42.8571 64.8633 37.8874 74.905 32.8125 81.25C30.2881 84.4059 27.7563 86.6272 25.8371 88.0673C25.7944 88.0993 25.7396 88.1198 25.6975 88.151C32.7177 92.6328 41.0502 95.2381 50 95.2381C58.947 95.2381 67.2744 92.6302 74.2932 88.151C74.2531 88.1213 74.2036 88.0978 74.1629 88.0673C72.2437 86.6272 69.7119 84.4059 67.1875 81.25C62.1126 74.905 57.1429 64.8633 57.1429 50C57.1429 35.1359 62.1122 25.0941 67.1875 18.75C69.7124 15.5939 72.2435 13.3724 74.1629 11.9327C74.2035 11.9023 74.2439 11.8694 74.2839 11.8397C67.2673 7.36403 58.9421 4.7619 50 4.7619C41.052 4.7619 32.7168 7.35952 25.6975 11.8397C25.7411 11.872 25.7929 11.8995 25.8371 11.9327C27.7563 13.3728 30.2881 15.5941 32.8125 18.75C37.8874 25.095 42.8571 35.1366 42.8571 50ZM61.9048 50C61.9048 63.7064 66.4594 72.7121 70.9077 78.2738C73.1441 81.0697 75.3757 83.0242 77.0275 84.2634C77.541 84.6485 78.0122 84.9425 78.3947 85.1935C88.6644 76.897 95.2381 64.2228 95.2381 50C95.2381 35.7775 88.6648 23.103 78.3947 14.8065C78.0111 15.058 77.5429 15.3594 77.0275 15.7459C75.3757 16.9848 73.1441 18.9308 70.9077 21.7262C66.4592 27.2868 61.9048 36.2927 61.9048 50ZM100 50C100 65.3382 93.0936 79.0661 82.2266 88.2347L80.0037 90.0019C71.6469 96.2789 61.2533 100 50 100C39.4486 100 29.6559 96.7281 21.5867 91.1458L19.9963 90.0019C7.8582 80.8838 0 66.3589 0 50C0 33.6411 7.8582 19.1163 19.9963 9.99814L21.5867 8.85417C29.6559 3.27194 39.4486 0 50 0C61.2545 0 71.6469 3.72055 80.0037 9.99814L82.2266 11.7746C93.091 20.9428 100 34.6636 100 50Z" fill="#564423"/>
</svg>
